# xmcd CD database file
#
# Track frame offsets:
#	150
#	19962
#	42728
#	59670
#	79644
#	98343
#	117935
#	139437
#	171069
#
# Disc length: 3395 seconds
#
# Revision: 1
# Processed by: cddbd v1.5.1PL0 Copyright (c) Steve Scherf et al.
# Submitted via: CDex 1.51
#
DISCID=790d4109
DTITLE=PE'Z - ?????
DYEAR=2005
DGENRE=Jazz
TTITLE0=WILD GYSPY????????????
TTITLE1=??????????
TTITLE2=POP'N'ROLL
TTITLE3=NO.6
TTITLE4=???
TTITLE5=AUCTION #2
TTITLE6=NA!NA!NA!????????????
TTITLE7=?????(TSU KU SHI N BOW Ver.)
TTITLE8=?SPACY NEWS?
EXTD=YEAR: 2005
EXTT0=
EXTT1=
EXTT2=
EXTT3=
EXTT4=
EXTT5=
EXTT6=
EXTT7=
EXTT8=
PLAYORDER=
